<svg xmlns="http://www.w3.org/2000/svg" viewBox="0 0 1800 1800" width="1800" height="1800"><g transform="translate(135.0 674.0) rotate(0.0 644.5 485.5) scale(1.0006575305883696 1.000493549341024)"><svg width="1288.153" height="970.521" viewBox="0 0 1288.153 970.521"><g fill="#AAA9AD"><path d="M739.373 958.354a1009.304 1009.304 0 0 1-47.917 5.91c288.244 32.309 515.331-61.395 556.441-260.7-113.282 126.71-294.739 223.189-508.524 254.79zM298.632 41.624C158.37 51.6 66.302 104.091 24.064 221.629 12.155 254.77 4.085 289.284 0 324.5 55.558 211.687 161.148 111.556 298.632 41.624z"/><ellipse cx="666.978" cy="451.499" rx="624.389" ry="446.883" transform="matrix(.9893 -.1462 .1462 .9893 -58.8526 102.3845)"/></g></svg></g><g transform="translate(391.0 359.0) rotate(0.0 433.0 630.5) scale(1.004290850052186 1.0035015120165527)"><svg width="862.3" height="1256.6" viewBox="0 0 862.3 1256.6"><clipPath id="a"><ellipse cx="328.5" cy="239" rx="30.4" ry="35.4" transform="matrix(.9387 -.3447 .3447 .9387 -62.2589 127.899)"/></clipPath><clipPath id="b"><path d="M434.1 164.2c9.5 20.6 20.1 44.4 29.9 67.3 18.5 43.1-50 39.9-70.1-8.4s28.8-83.6 40.2-58.9z"/></clipPath><clipPath id="c"><ellipse cx="432.7" cy="203.6" rx="28.5" ry="33.2" transform="matrix(.9387 -.3447 .3447 .9387 -43.6734 161.6493)"/></clipPath><path d="M551.5 413.8c48-.8 129.3-8.6 191.7 144s196.6 440.5 59.6 507.7c-119.1 58.4-153.3-84.4-171.9-135.5-19.1-52.4-72.8-257.4-78.3-299.8-18-76-9.9-168.2-1.1-216.4z" fill="#C67C4E"/><path d="M243.8 450.5S131.7 479 109.7 490s11.9 649.2 67 676c105.7 51.4 482.3-15.4 526.3-65.2 30.1-34.1-86.3-437.2-98.3-492.3s-19.3-198.4-53.3-194.7S410.7 426 410.7 426z" fill="#C67C4E"/><path d="M364.4 506.4c-45.6 9.1-111.8-11.5-120.8-57.2l-27-136c-9.1-45.6 20.6-89.9 66.2-99 45.6-9.1 89.9 20.6 99 66.2l27 136c9 45.7-2.9 67-44.4 90z" fill="#f4bbab"/><path d="m364.4 506.4 8.1-69.8c27.3-12 36.2-15.7 34.2-30.7l24.2 18.4c-10.7 36.7-31.5 67.1-66.5 82.1zm0 0-28.9-61.5c-39.6-7.3-76.3-7.2-103.4-41.5l-19.3 55.1c49.2 40.6 96.9 63.4 151.6 47.9z" fill="#e3e5e5"/><path d="M335.5 444.9s-74.7-10.9-104.1-47.2l-31.2 61c15.1 29.5 65.9 71.8 104.1 75.3zm37-8.3c18.6-9.1 34.2-30.7 37.4-39l24.7 25.4c8.1 26.2-2 54.6-10.8 78z" fill="#e3e5e5"/><path d="M313.3 511.6c-.9 0-1.7-.1-2.6-.5-3.9-1.4-5.9-5.7-4.5-9.6l19.9-54.7c1.4-3.9 5.7-5.9 9.6-4.5s5.9 5.7 4.5 9.6l-19.9 54.7c-1.1 3.1-3.9 5-7 5zm91.7-28.4c-2.2 0-4.4-1-5.8-2.8l-27.3-33.9c-2.6-3.2-2.1-7.9 1.1-10.5s7.9-2.1 10.5 1.1l27.3 33.9c2.6 3.2 2.1 7.9-1.1 10.5-1.3 1.1-3 1.7-4.7 1.7z" fill="#b7b7b7"/><path d="M408.9 111.4c14.4 27.4 91.1 193.3 87.1 211.4-5.6 25.2-61.2 59.3-113.3 67.8-48.1 7.9-118.2 4.4-163.3-78.9S202 131.1 262.1 96.9c60.4-34.4 130.1-17.3 146.8 14.5z" fill="#f4bbab"/><path d="M231.1 282.9c13.6 18 21.4 4.8 17.5-8.5-5-17-24.7-45.3-11.9-68.9 13.9-25.5 14.8-57.3 34.2-69.7 59-37.6 124.2-44.6 138-24.5 19.5-4.7 19.9-62.2-18.8-86.8 0 0 3.6 28.8-15.1 36.3 0 0-2.2-37.1-32.8-60.9 0 0 .8 18.4-8.4 27.7-2.6-12.8-26.7-11.8-36.8 17.5-1.8-11.6-18.7-25.1-26.2 10.6 0 0-34.5-7.8-42.2 28.4 0 0-59.8 28-65.8 74.1 0 0-1-24.3-8.2-23.9s3 109.8 31.8 156c16.8 27.1 44.7-7.4 44.7-7.4z"/><path d="M338.1 185.7c20.5 2.4 22.1-17.3 6.2-20.7-15.8-3.4-45.5 5.1-57.1 16-9.6 8.9-5.4 19.9 5.9 13.6 14.2-7.9 28-10.8 45-8.9zm48.8-37.2c-12.7 11.1-23.7-3.2-12.4-16.5 14.6-17.2 41.2-19.3 56.2-6.6 7.4 6.3 9.2 17 .2 13.4-14.8-6.1-27.3-4.9-44 9.7z"/><path d="M329.5 302.5c-33 0-59.8-26.8-59.8-59.8s26.8-59.8 59.8-59.8 59.8 26.8 59.8 59.8-26.8 59.8-59.8 59.8zm0-104.7c-24.7 0-44.8 20.1-44.8 44.8s20.1 44.8 44.8 44.8 44.8-20.1 44.8-44.8-20.1-44.8-44.8-44.8z" fill="#656c72"/><path d="M441.1 260.2c-30.8 0-55.8-25-55.8-55.8s25-55.8 55.8-55.8 55.8 25 55.8 55.8-25.1 55.8-55.8 55.8zm0-96.6c-22.5 0-40.8 18.3-40.8 40.8s18.3 40.8 40.8 40.8 40.8-18.3 40.8-40.8-18.3-40.8-40.8-40.8z" fill="#656c72"/><path d="M378.9 233c-2.9 0-5.7-1.7-6.9-4.5-1.6-3.8.1-8.2 3.9-9.9l15.9-6.9c3.8-1.6 8.2.1 9.9 3.9s-.1 8.2-3.9 9.9l-15.9 6.9c-1 .4-2 .6-3 .6zM197 285.1c-1.1 0-2.1-.2-3.2-.7-3.8-1.7-5.4-6.2-3.6-10 5.2-11.3 21.4-19.8 49.3-25.8 19.2-4.2 36.9-5.6 37.6-5.7 4.1-.3 7.7 2.7 8.1 6.9s-2.7 7.7-6.9 8.1c-.2 0-17.5 1.5-35.8 5.4-31.6 6.9-37.7 15.1-38.8 17.4-1.2 2.8-3.9 4.4-6.7 4.4z" fill="#656c72"/><path d="M417.3 273.5c-.8 0-1.5-.1-2.3-.4-3.9-1.3-6.1-5.5-4.8-9.4 1.5-4.8.6-7.9-.6-9.2-.8-.9-1.6-.8-2.1-.6-2.2.6-5.4 4.2-7.1 12.1-.9 4-4.9 6.6-8.9 5.7s-6.6-4.9-5.7-8.9c2.7-12.4 9.1-20.9 17.6-23.3 6.2-1.8 12.5 0 17 4.6 5.6 5.8 7.1 14.8 4.1 24.2-1 3.1-4 5.2-7.2 5.2zm-39.4 74.7c-9.2 0-18.2-1-24.1-2.7-4-1.1-6.3-5.2-5.2-9.2s5.2-6.3 9.2-5.2c8.2 2.3 27.3 3.4 40 0 4-1.1 8.1 1.3 9.2 5.3s-1.3 8.1-5.3 9.2c-7 1.8-15.5 2.6-23.8 2.6z" fill="#e09273"/><path d="M226.6 277.8c-21.3-20.7-55.1-11.3-44.8 31 8.3 33.9 44.1 35.9 54.5 28.3 10.3-7.6 10.1-40.1-9.7-59.3z" fill="#f4bbab"/><path d="M230.6 323.6c-2.8 0-5.5-1.6-6.8-4.3-1.8-3.7-6.1-9.9-11.8-15.3-5.5-5.2-11-8.3-14.7-8.4-4.1-.1-7.4-3.6-7.3-7.7s3.5-7.4 7.7-7.3c17.2.5 34.6 21.6 39.7 32.2 1.8 3.7.2 8.2-3.6 10-1 .6-2.1.8-3.2.8z" fill="#e09273"/><path d="M207 317.7c-1.5 0-2.9-.4-4.2-1.3-3.4-2.3-4.3-7-1.9-10.4l8.8-12.9c2.3-3.4 7-4.3 10.4-1.9 3.4 2.3 4.3 7 1.9 10.4l-8.8 12.9a7.68 7.68 0 0 1-6.2 3.2zm141.3 82.5c-19.3 0-39.9-2.7-58.5-10.7-3.8-1.7-5.5-6.1-3.9-9.9 1.7-3.8 6.1-5.5 9.9-3.9 34.4 15 78.5 9 101.7 4 4.1-.9 8 1.7 8.9 5.8s-1.7 8-5.8 8.9c-12.8 2.8-31.8 5.8-52.3 5.8z" fill="#e09273"/><ellipse cx="328.5" cy="239" fill="#fff" rx="30.4" ry="35.4" transform="matrix(.9387 -.3447 .3447 .9387 -62.2589 127.899)"/><ellipse clip-path="url(#a)" cx="333.4" cy="230.3" rx="20.1" ry="28.4" transform="matrix(.9387 -.3447 .3447 .9387 -58.9456 129.0365)"/><g clip-path="url(#b)"><ellipse cx="432.7" cy="203.6" fill="#fff" rx="28.5" ry="33.2" transform="matrix(.9387 -.3447 .3447 .9387 -43.6734 161.6493)"/><ellipse clip-path="url(#c)" cx="436.3" cy="195.6" rx="18.4" ry="26.4" transform="matrix(.9387 -.3447 .3447 .9387 -40.6857 162.3914)"/></g><path d="M324.7 560.6c-24.3 0-49.7-5.2-74.6-15.4-40.2-16.5-72.9-44.7-85.5-73.5-1.7-3.8.1-8.2 3.9-9.9s8.2.1 9.9 3.9c11.1 25.4 40.8 50.6 77.5 65.7 40.5 16.7 83.8 18.7 118.8 5.5 51.3-19.3 72.9-57.2 64.2-112.6-.6-4.1 2.1-7.9 6.2-8.6 4.1-.6 7.9 2.1 8.6 6.2 12.5 79-33.2 113.7-73.7 129-17.4 6.5-36 9.7-55.3 9.7z" fill="#855E50"/><path d="M109.7 490c-89 38.6-119.6 124.1-107 322 14.2 223.2 25.9 315.8 117.8 372.5 90 55.5 136.3-144.2 123.6-213.1 0 0 13.9-21.7-5.2-39.6-17.8-26.8-13.8-123.8-7.6-216.9 7.6-106-52.7-213.8-121.6-224.9z" fill="#C67C4E"/><path d="M647.3 779.8c-3.3 0-6.4-2.2-7.2-5.6-.3-1.3-34-129.9-42.5-163.9-1-4 1.4-8.1 5.5-9.1 4-1 8.1 1.4 9.1 5.5 8.5 33.9 42.1 162.4 42.4 163.7 1 4-1.3 8.1-5.4 9.2-.7.1-1.3.2-1.9.2zM245.2 989c-.9 0-1.8-.2-2.6-.5-3.9-1.5-5.8-5.8-4.4-9.7 8.4-22.3-5.3-42.6-5.5-42.8-.3-.4-.6-.9-.8-1.4-20.7-50.2-12.9-155.3-9.2-205.8.4-5.7.8-10.7 1-14.5.3-4.1 3.8-7.3 8-7 4.1.3 7.3 3.8 7 8-.2 3.9-.6 8.9-1 14.7-3.3 45.3-11.2 151 7.8 198.3 3 4.7 16.9 28.6 6.7 55.9-1.1 3-3.9 4.8-7 4.8z" fill="#855E50"/><path d="m426.9 673.5 52.2 136.7c35.7 90.3 189.3 30 153.7-60.3l-70.8-141c-37.1-79.1-172.2-14.5-135.1 64.6z" fill="#f4bbab"/><path d="M802.8 1065.5c-41.1 20-128.1.2-164.8-14.5s-73.1-37.2-86.4-99c-10.6-26.9-42.8-28.6-51.7-47.4-10.1-21.3-13.2-56.7-19.8-83.8-22.7-8.7-42.3-23.2-28.4-72.2 68-16.4 108.7-55 141.8-86.9 31.8 3.1 44.9 29.3 46.9 68.3 15.7-6.3 23.2 7.2 29.2 29.7 0 0 40-3.2 49.2 6.6 9.1 9.8 14.4 66.1 27.5 67.3 13.2 1.2 28.1 8 44.2 43.7 22.8 50.5 28.3 187.3 12.3 188.2z" fill="#C67C4E"/><path d="m451.7 748.6-22.3-53c56.9-.4 106.5-33.2 140.4-80.5l23.7 46.6c-30.4 53.2-81.7 85.3-141.8 86.9z" fill="#C67C4E"/><path d="M620.9 1057c-1 0-2.1-.2-3.1-.7-29.3-13.5-68.5-68.5-73.6-103.2-.8-3.1-11.2-10.4-18.1-15.2-11.8-8.3-25.1-17.6-32.5-29.3-8.5-13.4-17.4-65-20.2-81.9-12.1-4-21.1-11.2-26.7-21.6-11.4-20.7-5.4-47.4-3-56.1l-21.3-50.5c-1.6-3.8.2-8.2 4-9.8s8.2.2 9.8 4l22.3 53c.7 1.7.8 3.6.2 5.3-.1.3-9.2 28.3 1.1 47 4.4 7.9 11.6 13 22 15.6 2.9.7 5.2 3.1 5.6 6.1 4.1 26.3 12.8 71.5 18.8 80.9 5.8 9.1 17.8 17.6 28.4 25 12.8 9 23 16.1 24.4 25.3 4.4 29.7 40.2 80.3 65.1 91.7 3.8 1.7 5.4 6.2 3.7 9.9-1.3 2.9-4 4.5-6.9 4.5z" fill="#855E50"/><g fill="#f4bbab"><path d="M562 608.8c-7.5-27.4-1.3-84.9 15.2-122s-122.3-15.7-132.6 16.9c-10.2 32.5-24.9 66.5-30.6 89.3-6.3 24.6-3.6 51 12.9 80.5 13 23.2 135.1-64.7 135.1-64.7z"/><path d="M577.2 486.8c9-24.7 27.7-77.4 26.1-94.2-1.7-16.9-29.3-73.4-35.8-85.1-13.1-23.6-48.3-12.9-37.8 15.7 12.4 33.9 25.1 74.9 25.1 74.9l-24.3 84.2z"/><path d="M547 490c5.4-22.3 21.2-85.8 14.8-97.7S509.5 364 500 371c-5.3 3.9-25.6 51.2-29.1 59.3-7.9 18.4 26.4 34.2 35.9 13.8 5.3-11.3 11.7-23.9 11.7-23.9l-14.2 65.7z"/><path d="M518.1 493.5c1.7-17.8-.4-81.7-7.8-88.1s-62.4-7.7-68.8-4.8-10.9 45.3-12.9 54.9c-4.7 22.7 33.3 31.5 38.5 8.4 3-13.4 3-21.2 3-21.2l6.2.4-.4 56.8z"/><path d="M490.1 497.7c-1-13.4-.6-55.8-5.6-61.1s-57.4-9.2-63.6-5.8-13.4 39.9-17.3 61.7c-4 22.7 33.9 32.1 38.7 6.1 2.7-14.9 2.4-29.6 2.4-29.6l-.1 34.6z"/></g><path d="M547 497.6c-.7 0-1.3-.1-2-.3-4-1.1-6.3-5.2-5.3-9.2 8-29.1 19-79.4 15.2-92.8-1.2-1.4-5.3-4.3-8.9-6.4s-4.8-6.7-2.7-10.2c2.1-3.6 6.7-4.8 10.2-2.7 8.8 5.1 14 9.8 15.4 14 7 20.4-11 88.6-14.7 102.1-.9 3.3-3.9 5.5-7.2 5.5zm-28.9 3.4h-.2c-4.1-.1-7.4-3.6-7.3-7.7.9-28.8-.6-73.6-6.5-83.7-2.2-1.6-11.3-2.6-19.1-2.1-4.1.3-7.7-2.8-8-7s2.8-7.7 6.9-8c7.8-.6 26.6-.8 32.7 8.8 10.7 17 9.3 79.9 9 92.4-.2 4.1-3.5 7.3-7.5 7.3z" fill="#e09273"/><path d="M490.1 505.2c-4 0-7.4-3.2-7.5-7.3-.7-22.2-2.4-48.4-4.1-56.1-6.6-2-27.6-4-45.3-4.8-4.1-.2-7.3-3.7-7.1-7.8s3.7-7.3 7.8-7.1c50.8 2.3 54.7 7.5 56.6 10 1.6 2.2 3.7 4.9 5.7 36.5.9 14.6 1.4 28.8 1.4 28.9.1 4.1-3.1 7.6-7.3 7.7h-.2zm-45.5 6c-4.2 0-7.5-3.4-7.5-7.5l.1-34.6c0-4.1 3.4-7.5 7.5-7.5s7.5 3.4 7.5 7.5l-.1 34.6c0 4.2-3.4 7.5-7.5 7.5z" fill="#e09273"/><path d="M783.9 871.8c-3.9 0-7.2-3.1-7.5-7-.2-4-4.3-9.1-11.2-13.9-7.5-5.2-15.9-8.6-20.8-10-10.8-2.9-14.5-18.4-19.3-38-2.5-10.3-6.7-27.5-10.7-30.5-15.5-11.3-42.9-5.4-43.1-5.4-4 .9-8-1.6-8.9-5.6-4.1-17.5-9.8-22.7-12.9-24.2-2.8-1.4-5.2-.7-5.7-.4-2.2 1.2-4.7 1.2-6.9.1-2.3-1.2-3.6-3.5-3.9-6.1-5.1-53.3-23.4-57.5-38.2-61-1.1-.2-2.1-.5-3.1-.7-2.1-.5-3.9-1.9-4.9-3.9L563 618.5c-1.9-3.7-.4-8.2 3.3-10.1s8.2-.4 10.1 3.3l22.2 43.5c15.6 3.7 40.9 10.1 48.4 66.1 2.6.1 5.5.7 8.6 2.1 8.7 4 15.2 13.4 19.6 27.8 11.1-1.3 32.7-2.1 48.1 9 8.5 6.2 12.4 22.2 16.5 39.1 2.2 9.1 5.9 24.3 9 27.2 13.7 3.8 41.6 17.6 42.8 37.3.3 4.1-2.9 7.7-7 7.9-.4.1-.5.1-.7.1z" fill="#855E50"/><path d="M452.9 756.1h-1.3c-4.1 0-7.5-3.4-7.4-7.6 0-4.1 3.5-7.5 7.6-7.4h1.1c30.5 0 60.5-10.1 86.7-29.4 20-14.6 37.6-34.6 47.3-53.5 1.9-3.7 6.4-5.1 10.1-3.3 3.7 1.9 5.1 6.4 3.3 10.1-16.3 31.7-67.8 91.1-147.4 91.1z" fill="#855E50"/><path d="m571.8 1056.9-145.6-14.7c-96.7-8.6-112.4 168-15.7 176.6l157.8-1.1c87.4 1.9 90.8-158.9 3.5-160.8z" fill="#f4bbab"/><path d="M120.5 1184.5c55.6 37.9 82.7 38.1 101.8 39.5 23 14 89.1 44.8 133.9 11 0 0 44.4 26.2 67.1 21 20.9-4.8 35.9-33.5 35.9-33.5-8.2-60 1.1-119.5 24.8-178.6-3-27-12-44.3-65.3-25.3 0 0-15.7-25.8-35.7-20.9s-31.2 17.2-47.5 12.2-52.7-27.1-75.9-28.7c-32.7-2.2-53.5 17.9-67.9 29.5-54 43.3-83.6 102.6-71.2 173.8z" fill="#C67C4E"/><path d="M483.9 1043.8c-29.2 11.6-52.1 124.6-24.8 178.6 0 0 50.6 2.6 69.1-.2-19-70.6-14-136.4 16.1-172.6z" fill="#C67C4E"/><path d="M571.8 1056.9c35.9 1.8 130.9-33.9 157-29 25.3 4.7 44.5 158.1 25.5 167.9s-116.2 39.1-163.4 31c-64.3-11-19.1-169.9-19.1-169.9z" fill="#f4bbab"/><path d="M728.8 1027.9c35.4 6.1 76.6 20.5 87.6 33.2s5.4 70.3-7.5 81.5c-5.8 5.1-48-1.3-58.4-2.7-26.2-3.6-23.9-40.5 3.3-39.2 18.7.9 27.2 1.4 27.2 1.4l1.5-11.1-47.1-9.2z" fill="#f4bbab"/><path d="M734.2 1072.2c16.9-.2 68.9 13.4 77.5 20.1 8.5 6.7 17.5 55 11.8 63.6-4 6.1-33.3 19.6-40.4 23.1-20.9 10.2-38.9-24.4-16.6-36.4 21.1-11.4 18.3-10.9 18.3-10.9l-4.7-9-41.8-2.3z" fill="#f4bbab"/><path d="M737.7 1114.1c14.5-1.3 61 2.1 66.6 6s17.3 49.4 13.2 56.8-26.1 24.7-31.8 29c-16.3 12.4-39-16.5-18.5-33.5 5.9-4.9 13.8-11.1 13.8-11.1l-2.2-7.6-34.5 4.9z" fill="#f4bbab"/><path d="M743.2 1151.3c12.3-2 41.5-1.2 50.4.5s17.9 52.5 11.4 60.9c-6.6 8.4-40.3 21.1-51.4 24.5-22.4 6.9-34.8-27.7-14.8-35.3 11-4.2 21.3-7.2 21.3-7.2l-11.6-3.7z" fill="#f4bbab"/><path d="M820.8 1116.9c-3 0-5.9-1.9-7-4.9 0-.1-3.2-8.6-8.2-15.2-3.8-4.3-33.9-12.3-72.4-17.2-4.1-.5-7-4.3-6.5-8.4s4.3-7 8.4-6.5c.7.1 17.7 2.3 36.1 5.9 35 6.9 43.2 12.8 46.5 17.2 6.2 8.4 10 18.5 10.2 18.9 1.4 3.9-.5 8.2-4.4 9.6-.9.4-1.8.6-2.7.6zm-3.5 44.1c-3.5 0-6.6-2.5-7.3-6-2.9-14.3-7.6-26.3-10.3-29-5.5-2.8-36.3-4.5-61.9-4.4h-.1c-4.1 0-7.5-3.3-7.5-7.4s3.3-7.5 7.4-7.6c.6 0 15.2-.1 30.9.6 29.9 1.3 37.2 4.3 40.7 7.2 8.8 7.5 14 30.6 15.4 37.6.8 4.1-1.8 8-5.9 8.8-.4.2-.9.2-1.4.2z" fill="#e09273"/><path d="M806.5 1196.4c-3.5 0-6.7-2.5-7.4-6.1-2.6-13.9-6.8-28.2-9.3-31.9-7.2-1.7-38.1-.5-45.8.3-4.1.5-7.8-2.5-8.3-6.6s2.5-7.8 6.6-8.3c3-.3 14.1-1 25.6-1.2 23.1-.4 27.1 1.5 29 2.5 4.3 2.1 8.1 7.1 12.8 24.5 2.4 9.1 4 17.6 4.1 17.9.8 4.1-1.9 8-6 8.7-.4.2-.8.2-1.3.2zm-67.7 13c-3.1 0-6.1-2-7.1-5.1-1.3-3.9.8-8.2 4.7-9.5l21.3-7.2c3.9-1.3 8.2.8 9.5 4.7s-.8 8.2-4.7 9.5l-21.3 7.2c-.8.3-1.6.4-2.4.4z" fill="#e09273"/><path d="M459.2 1229.9c-2.8 0-5.4-1.5-6.7-4.2-10.2-20.5-14.5-47.8-12.5-78.9 1.6-25.4 7.5-52.5 16.1-74.4 4.5-11.4 11.2-25.2 19.5-32.1-1.9-9-3.4-14.6-8.2-17.6-7.5-4.5-23.2-3.5-46.6 3-3.2.9-6.6-.4-8.4-3.3-15.7-25.2-28.9-19.6-47.3-11.9-9.9 4.2-20.2 8.5-30.8 6.6-19.9-3.4-31.8-10.4-42.2-16.6-9.9-5.9-18.5-10.9-33-12-35.5-2.6-61.4 26.7-61.7 27-2.7 3.1-7.5 3.5-10.6.7-3.1-2.7-3.4-7.5-.7-10.6 1.3-1.4 31.2-35.2 74.1-32.1 18 1.3 29 7.8 39.5 14.1 9.8 5.8 19.9 11.7 37.1 14.7 6.3 1.1 14.2-2.2 22.4-5.7 17.5-7.3 41.1-17.3 62.7 13.2 25.5-6.5 42.5-6.5 53.2 0 10.8 6.6 13.2 18.2 15.1 27.5.3 1.7.7 3.2 1 4.8.9 3.7-1.1 7.4-4.6 8.7-2.8 1.1-9.6 9.2-16.6 27.1-16.3 41.5-22.9 103.3-4.1 141.2 1.8 3.7.3 8.2-3.4 10.1-1.1.5-2.2.7-3.3.7z" fill="#855E50"/><path d="M544.3 1057h-.7l-60.4-5.7c-4.1-.4-7.2-4-6.8-8.2s4-7.1 8.2-6.8l60.4 5.7c4.1.4 7.2 4 6.8 8.2-.4 3.9-3.6 6.8-7.5 6.8z" fill="#855E50"/></svg></g><g transform="translate(1164.0 152.0) rotate(0.0 249.5 207.0) scale(1.0017686536751258 1.002384901274772)"><svg width="498.119" height="413.015" viewBox="0 0 498.119 413.015"><ellipse cx="222.213" cy="206.508" fill="#2471ed" rx="222.391" ry="206.276" transform="matrix(.9937 -.1121 .1121 .9937 -21.7483 26.211)"/><path d="m247.22 86.88-140.278 15.824c-46.455 5.241-80.177 47.537-74.936 93.993l6.966 61.749c5.241 46.455 47.537 80.177 93.993 74.936l140.278-15.824c46.455-5.241 80.177-47.537 74.936-93.993l-6.966-61.749c-5.241-46.455-47.537-80.176-93.993-74.936z" fill="#54d8f7"/><path d="m446.706 108.654-31.018 3.499c-23.386 2.638-38.645 37.569-34.081 78.02s27.22 71.105 50.606 68.467l31.018-3.499z" fill="#2471ed"/><ellipse cx="454.968" cy="181.898" fill="#2471ed" rx="42.612" ry="73.708" transform="matrix(.9937 -.1121 .1121 .9937 -17.5226 52.147)"/><g fill="#004ebf"><path d="M460.379 262.802c-26.481.003-50.328-32.036-55.208-75.287-5.104-45.25 12.771-83.164 40.693-86.314 4.121-.464 7.829 2.496 8.293 6.612s-2.496 7.829-6.612 8.293c-18.913 2.134-31.492 34.065-27.47 69.727 4.023 35.662 23.389 63.978 42.313 61.855a7.5 7.5 0 1 1 1.681 14.905c-1.231.14-2.466.209-3.69.209z"/><path d="M429.333 266.302c-12.8 0-25.286-7.441-35.514-21.279-10.329-13.975-17.313-33.156-19.666-54.009-2.353-20.854.183-41.108 7.139-57.033 7.554-17.293 19.471-27.692 33.554-29.28l31.019-3.5a7.495 7.495 0 0 1 8.293 6.612 7.5 7.5 0 0 1-6.612 8.293l-31.019 3.5c-8.538.963-16.169 8.201-21.489 20.379-5.918 13.547-8.042 31.072-5.98 49.347s8.036 34.886 16.823 46.775c7.9 10.688 16.961 16.039 25.489 15.08l31.019-3.499c4.121-.462 7.829 2.496 8.293 6.612s-2.496 7.829-6.612 8.293l-31.019 3.499c-1.239.141-2.481.21-3.718.21z"/><ellipse cx="107.697" cy="207.718" rx="18.393" ry="31.77" transform="matrix(.9937 -.1121 .1121 .9937 -22.6058 13.3817)"/><ellipse cx="218.832" cy="195.181" rx="18.393" ry="31.77" transform="matrix(.9937 -.1121 .1121 .9937 -20.5 25.7606)"/><path d="M170.283 288.145c-5.155 0-10.125-1.646-14.227-4.751-4.94-3.74-8.036-9.134-8.719-15.187a7.5 7.5 0 1 1 14.905-1.681c.218 1.93 1.236 3.673 2.868 4.909 1.745 1.321 3.958 1.909 6.235 1.65 2.276-.257 4.304-1.321 5.71-2.998 1.316-1.568 1.92-3.494 1.703-5.424a7.5 7.5 0 0 1 6.612-8.293c4.116-.468 7.829 2.496 8.293 6.612.683 6.053-1.134 12-5.116 16.747-3.892 4.638-9.403 7.572-15.521 8.262-.917.102-1.832.154-2.743.154zm167.695 56.396a7.5 7.5 0 0 1-1.64-14.818l97.944-22.049 6.127-51.681c.488-4.114 4.221-7.055 8.331-6.565a7.5 7.5 0 0 1 6.565 8.331l-6.752 56.95a7.499 7.499 0 0 1-5.801 6.434l-103.121 23.214a7.552 7.552 0 0 1-1.653.184z"/><ellipse cx="316.352" cy="341.983" rx="30.351" ry="16.771" transform="matrix(.9749 -.2228 .2228 .9749 -68.2368 79.0716)"/></g></svg></g><g transform="translate(749.0 183.0) rotate(0.0 166.5 90.0) scale(1.0005408328826393 1.0035066984072119)"><svg width="332.82" height="179.371" viewBox="0 0 332.82 179.371"><path d="M332.82 0H0v128.245h65.452l30.408 51.126 30.408-51.126H332.82z" fill="#e3e5e5"/><g fill="#8f969e"><path d="M60.668 109.93c-3.956 0-7.836-.713-11.448-2.137-17.837-7.033-26.519-32.766-27.036-53.698-.423-17.104 4.304-29.163 12.968-33.084 5.842-2.647 13.359-1.366 19.151 3.259 3.998 3.193 12.856 12.773 8.771 32.717a5.001 5.001 0 0 1-9.797-2.007c2.096-10.229.196-18.574-5.214-22.895-3.281-2.62-6.777-2.875-8.787-1.964-3.781 1.712-7.441 9.712-7.094 23.728.44 17.856 7.848 39.571 20.706 44.641 6.274 2.474 15.403 1.463 21.769-2.833-4.691-8.287-4.842-17.885-.22-25.787a5 5 0 0 1 7.305-1.483c9.646 7.192 12.321 17.022 7.156 26.297a23.22 23.22 0 0 1-.94 1.54c2.786 2.25 5.912 3.284 8.52 2.66 4.345-1.036 7.729-6.838 9.285-15.918.419-2.448 2.545-4.191 5.058-4.153a4.998 4.998 0 0 1 4.835 4.411c1.17 9.901 5.351 15.335 7.814 15.335h.028c2.061-.035 8.377-5.288 10.297-28.184a5 5 0 0 1 9.16-2.328c2.035 3.096 3.641 8.043 5.5 13.771 1.617 4.982 5.368 16.542 8.054 17.905 2.454-1.169 7.208-8.032 8.181-12.01-.024-1.25.061-2.346.253-3.204a5.011 5.011 0 0 1 5.165-3.897 5 5 0 0 1 4.686 4.461c.113 1.06.058 2.208-.14 3.411.279 3.23 1.995 8.625 3.624 10.489.592-.647 1.631-2.08 2.929-5.104a5 5 0 0 1 9.189 3.945c-4.955 11.539-10.757 12.419-14.751 11.127-3.099-1.004-5.524-3.742-7.297-7.096-2.532 3.331-5.438 6.014-8.01 7.125-.047.021-.095.04-.143.059-2.625 1.041-5.332.97-7.826-.205-5.612-2.642-8.928-10.508-11.809-19.007-4.808 16.389-12.955 18.673-16.894 18.74-5.318.058-9.964-3.227-13.268-8.938-3.791 6.087-8.465 8.243-11.604 8.991-5.945 1.42-12.514-.596-17.857-5.226-2.547 1.836-5.451 3.364-8.591 4.485-3.84 1.374-7.796 2.061-11.678 2.061zm20.42-26.9c.044.877.162 1.739.342 2.579a7.723 7.723 0 0 0-.342-2.579zm173.85 26.606c-2.858 0-5.722-1.444-8.294-4.156-3.125 2.602-7.202 3.36-11.356 2.073-2.249-.697-4.373-1.932-6.33-3.641-.735 1.355-1.716 2.476-2.985 3.269-7.504 4.686-15.444-5.252-18.052-8.518a5 5 0 1 1 7.812-6.242c2.291 2.867 3.917 4.37 4.941 5.151.219-1.509.192-3.808-.144-6.395-1.337-3.339-2.413-7.088-3.177-11.176a4.998 4.998 0 0 1 3.373-5.675 4.999 4.999 0 0 1 6.062 2.617c1.427 3.015 2.742 7.225 3.454 11.588 2.694 6.164 5.997 8.846 8.006 9.469 1.376.424 1.911-.106 2.167-.362.252-.251.511-.625.744-1.128-2.31-5.792-3.425-13.051.206-17.695a5 5 0 0 1 8.717 1.605c1.739 5.637 2.277 10.791 1.651 15.116 1.033 1.842 2.115 3.138 2.867 3.754.561-.919 1.56-3.173 2.267-8.238a5 5 0 0 1 9.209-1.931c4.845 7.863 8.211 10.555 12.869 10.269 2.729-.167 5.125 1.932 5.293 4.688a5 5 0 0 1-4.688 5.294c-6.903.42-11.929-2.639-15.603-6.374-1.487 3.058-3.751 5.708-7.238 6.451a8.506 8.506 0 0 1-1.771.187zm38.05-16.198a5 5 0 0 1-4.884-3.954c-.083-.388-.172-.784-.263-1.188-1.169-5.217-2.937-13.1 3.537-20.508.154-.176.32-.341.497-.494 5.235-4.521 10.169-14.638 8.446-20.422a5.073 5.073 0 0 1-.061-.22c-1.288-5.176-3.907-8.15-7.783-8.841-4.557-.809-10.154 1.754-13.016 5.968-1.667 2.455-3.021 6.405-.004 11.281a5 5 0 0 1-8.504 5.262c-4.488-7.253-4.402-15.33.235-22.16 5.099-7.512 14.574-11.704 23.042-10.195 7.74 1.379 13.46 7.269 15.708 16.167 2.291 7.941-1.342 21.719-11.228 30.467-2.705 3.27-2.222 6.553-1.111 11.508.098.436.194.863.283 1.281a5.002 5.002 0 0 1-4.894 6.048z"/><circle cx="296.679" cy="104.455" r="5.069"/></g></svg></g><g transform="translate(1257.0 642.0) rotate(0.0 205.0 118.0) scale(1.0020529866067063 1.0018593830923492)"><svg width="409.16" height="235.562" viewBox="0 0 409.16 235.562"><path d="M116.375 69.635 87.297 0 58.22 69.635H0v165.927h409.16V69.635z" fill="#e3e5e5"/><g fill="#8f969e"><path d="M25.139 194.145a5.001 5.001 0 0 1-.653-9.957c8.211-1.092 15.617-6.695 21.783-14.524a71.232 71.232 0 0 1-2.176-5.116c-8.685-22.794-7.442-55.103 8.227-65.019 7.815-4.946 13.084-3.354 16.127-1.15 10.734 7.777 5.606 31.989 3.779 39.225-3.03 11.995-8.015 23.529-14.174 32.869 7.641 12.217 16.929 12.979 22.358 12.081 4.706-.778 7.708-10.773 9.694-17.388.649-2.161 1.262-4.203 1.908-5.932a5.002 5.002 0 0 1 3.386-3.08 5.003 5.003 0 0 1 4.474.968c2.844 2.339 5.821 5.864 8.974 9.597 5.79 6.854 13.722 16.256 19.82 15.524 2.124-.249 4.347-1.771 6.584-4.479a41.026 41.026 0 0 1-2.819-6.665c-.892-2.734-3.605-11.057 1.868-14.625 3.025-1.971 7.083-1.242 10.594 1.904 4.083 3.657 7.123 10.271 4.15 16.152a68.06 68.06 0 0 1-1.726 3.205c2.933 3.137 6.575 4.738 10.709 4.59 7.838-.252 15.562-6.629 17.584-14.518a5 5 0 0 1 9.562-.411c2.85 8.138 5.791 16.544 24.949 15.104a4.999 4.999 0 1 1 .754 9.97c-17.528 1.33-25.838-4.379-30.626-11.914-5.254 6.862-13.42 11.49-21.902 11.763-6.443.21-12.267-2.077-16.947-6.431-3.553 3.721-7.389 5.796-11.572 6.286-11.443 1.34-20.968-9.94-28.624-19.004-.771-.912-1.529-1.811-2.269-2.672-2.823 9.178-6.946 20.274-16.896 21.919-11.906 1.972-22.483-2.894-30.355-13.576-7.768 8.788-16.617 14.026-25.883 15.258-.22.031-.442.046-.662.046zm36.721-87.856c-.95 0-2.474.602-4.191 1.688-9.705 6.143-11.927 31.353-4.75 51.597 4.257-7.657 7.544-16.233 9.612-24.421 4.587-18.16 1.955-27.297.05-28.677-.174-.125-.418-.187-.721-.187zm209.425 112.642a8.727 8.727 0 0 1-3.949-.926c-1.573-.789-6.537-4.093-4.36-13.489 4.528-19.553 13.733-25.478 24.176-26.316.315-4.063-.116-7.647-1.194-10.384-1.062-2.696-2.586-4.181-4.528-4.411-4.198-.496-12.32 4.174-22.554 18.773a5 5 0 0 1-8.188-5.74c14.308-20.41 25.254-23.747 31.92-22.964 5.714.678 10.208 4.47 12.654 10.676 1.531 3.885 2.253 8.876 1.889 14.487 3.326.458 6.667 1.144 9.928 1.812 3.713.762 7.552 1.549 11.434 2.083 3.265.448 6.017-2.876 7.661-5.518-5.81-12.113-7.642-29.702 1.952-40.394a4.999 4.999 0 0 1 3.64-1.66c1.383-.052 2.729.535 3.692 1.54 4.195 4.377 6.393 11.698 6.191 20.615-.153 6.73-1.642 13.726-4.145 19.652 2.798 4.172 5.768 6.197 7.653 6.046 2.017-.172 5.063-3.314 7.563-11.62a5 5 0 0 1 9.625.174c1.16 4.427 5.483 9.06 10.515 11.267 1.97.864 5.733 2.068 8.812.434a5 5 0 0 1 4.689 8.832c-5.039 2.675-11.26 2.638-17.517-.107-4.122-1.809-7.825-4.592-10.697-7.895-3.939 6.611-8.533 8.571-12.142 8.879-4.87.418-9.788-2.044-14.019-6.809-4.223 4.902-9.4 7.221-14.835 6.469-4.207-.578-8.209-1.399-12.08-2.193-3.519-.722-6.699-1.374-9.574-1.794-2.106 7.816-6.223 16.191-12.926 24.117-3.501 4.137-7.558 6.364-11.286 6.364zm13.684-30.405c-5.705 1.541-9.536 6.523-12.25 18.246a11.29 11.29 0 0 0-.262 1.591c.653-.415 1.515-1.113 2.478-2.253 4.792-5.666 8.071-11.778 10.034-17.584zm46.553-35.475c-.251 2.08-.252 4.266-.038 6.473.188-2.249.202-4.441.038-6.473z"/></g></svg></g></svg>